<?xml version="1.0" standalone="no"?>
<!DOCTYPE svg PUBLIC "-//W3C//DTD SVG 20010904//EN"
 "http://www.w3.org/TR/2001/REC-SVG-20010904/DTD/svg10.dtd">
<svg version="1.0" xmlns="http://www.w3.org/2000/svg"
 width="3000.000000pt" height="3000.000000pt" viewBox="0 0 3000.000000 3000.000000"
 preserveAspectRatio="xMidYMid meet">
<metadata>
Created by potrace 1.14, written by Peter Selinger 2001-2017
</metadata>
<g transform="translate(0.000000,3000.000000) scale(0.100000,-0.100000)"
fill="#000000" stroke="none">
<path d="M0 15000 l0 -14940 15000 0 15000 0 0 14940 0 14940 -15000 0 -15000
0 0 -14940z m6005 -3360 c638 -54 1137 -240 1610 -599 126 -95 399 -366 495
-491 340 -442 542 -948 620 -1554 38 -301 40 -443 40 -3418 l0 -2898 -1100 0
-1100 0 0 930 0 930 -900 0 -900 0 0 -930 0 -930 -1090 0 -1090 0 0 3009 c0
2023 3 3052 11 3138 67 819 341 1453 844 1959 170 171 284 265 465 384 138 91
392 219 543 275 280 103 616 172 957 198 107 8 485 6 595 -3z m10852 -130
l813 0 0 -1685 0 -1685 875 0 875 0 0 1685 0 1685 1100 0 1100 0 0 -4415 0
-4415 -1100 0 -1100 0 0 1675 0 1675 -875 0 -875 0 0 -1675 0 -1675 -1080 0
-1080 0 0 1053 c0 578 -3 2568 -7 4421 l-6 3369 273 -6 c150 -4 639 -7 1087
-7z m-2077 -1055 l0 -1055 -569 0 c-562 0 -737 -7 -921 -35 -358 -56 -663
-180 -930 -377 -148 -110 -361 -330 -453 -468 -259 -391 -384 -921 -363 -1535
20 -602 157 -1046 438 -1422 241 -323 634 -572 1077 -683 312 -78 462 -90
1167 -90 l571 0 7 -92 c3 -50 6 -520 6 -1043 l0 -953 -192 -6 c-106 -4 -510
-8 -898 -9 -767 -2 -822 1 -1140 59 -956 175 -1787 697 -2409 1513 -509 669
-795 1422 -893 2351 -18 169 -18 831 0 1000 111 1055 475 1887 1149 2625 654
716 1414 1116 2346 1236 243 31 401 36 1235 38 l772 1 0 -1055z m12350 35 l0
-1020 -1162 0 c-1287 0 -1239 2 -1375 -65 -84 -42 -123 -82 -153 -162 -34 -88
-33 -183 2 -251 103 -198 413 -475 964 -858 94 -65 249 -173 345 -239 569
-394 1214 -928 1445 -1195 318 -368 478 -789 501 -1314 6 -152 -9 -417 -33
-586 -72 -499 -238 -912 -518 -1284 -360 -479 -916 -716 -1911 -813 -147 -14
-364 -17 -1582 -20 l-1413 -4 0 1015 0 1015 1243 4 c1295 3 1291 3 1463 47
219 56 353 184 385 368 14 81 6 133 -35 218 -108 223 -384 481 -984 921 -359
264 -599 444 -767 577 -346 273 -715 594 -863 750 -275 290 -433 658 -488
1136 -13 114 -15 199 -11 400 8 362 43 587 136 870 150 455 404 780 818 1050
412 269 912 421 1483 449 85 4 685 9 1333 9 l1177 2 0 -1020z"/>
<path d="M5500 9663 c-268 -45 -480 -209 -599 -465 -48 -101 -74 -188 -103
-339 -21 -112 -21 -132 -25 -1220 l-4 -1106 548 -6 c301 -4 712 -7 912 -7
l364 0 -7 418 c-3 229 -8 710 -12 1067 -6 693 -11 802 -48 948 -49 190 -123
327 -259 473 -166 178 -336 245 -609 243 -73 -1 -144 -4 -158 -6z"/>
</g>
</svg>
